<mxfile host="Electron" modified="2023-11-29T19:28:19.529Z" agent="Mozilla/5.0 (Windows NT 10.0; Win64; x64) AppleWebKit/537.36 (KHTML, like Gecko) draw.io/21.6.8 Chrome/114.0.5735.289 Electron/25.5.0 Safari/537.36" etag="SwgwXNXLORFUTHFfozwp" version="21.6.8" type="device">
  <diagram id="C5RBs43oDa-KdzZeNtuy" name="Page-1">
    <mxGraphModel dx="493" dy="2630" grid="1" gridSize="10" guides="1" tooltips="1" connect="1" arrows="1" fold="1" page="1" pageScale="1" pageWidth="827" pageHeight="1169" math="0" shadow="0">
      <root>
        <mxCell id="WIyWlLk6GJQsqaUBKTNV-0" />
        <mxCell id="WIyWlLk6GJQsqaUBKTNV-1" parent="WIyWlLk6GJQsqaUBKTNV-0" />
        <mxCell id="PtvGfc8u3fFPzmpzfyYF-7" value="MedicinalProductDefinition&amp;nbsp;&lt;br&gt;&lt;i style=&quot;border-color: var(--border-color);&quot;&gt;Stelbat Tablets, 20mg&lt;/i&gt;" style="rounded=1;whiteSpace=wrap;html=1;fontSize=12;glass=0;strokeWidth=1;shadow=0;fillColor=#ffe699;" parent="WIyWlLk6GJQsqaUBKTNV-1" vertex="1">
          <mxGeometry x="80" y="-1080" width="156" height="40" as="geometry" />
        </mxCell>
        <mxCell id="IEeFdyCGopTc3gh3-DFE-2" value="SubstanceDefinition&lt;br&gt;&lt;i style=&quot;border-color: var(--border-color);&quot;&gt;Mannitol&lt;/i&gt;" style="rounded=1;whiteSpace=wrap;html=1;fontSize=12;glass=0;strokeWidth=1;shadow=0;fillColor=#c1f0da;strokeColor=#9ebda2;" parent="WIyWlLk6GJQsqaUBKTNV-1" vertex="1">
          <mxGeometry x="460" y="-1120" width="150" height="40" as="geometry" />
        </mxCell>
        <mxCell id="IEeFdyCGopTc3gh3-DFE-3" value="" style="endArrow=classic;html=1;rounded=0;exitX=1;exitY=0.5;exitDx=0;exitDy=0;entryX=0;entryY=0.5;entryDx=0;entryDy=0;" parent="WIyWlLk6GJQsqaUBKTNV-1" source="bwwu2G-xtIND38kB5rFb-2" edge="1" target="IEeFdyCGopTc3gh3-DFE-2">
          <mxGeometry x="-0.3333" y="-2" width="50" height="50" relative="1" as="geometry">
            <mxPoint x="420" y="-1050" as="sourcePoint" />
            <mxPoint x="460" y="-1050" as="targetPoint" />
            <mxPoint as="offset" />
          </mxGeometry>
        </mxCell>
        <mxCell id="bwwu2G-xtIND38kB5rFb-2" value="Ingredient (exipient)&lt;br&gt;&lt;i&gt;Novel?, Suitability&lt;/i&gt;" style="rounded=1;whiteSpace=wrap;html=1;fontSize=12;glass=0;strokeWidth=1;shadow=0;fillColor=#f8cecc;strokeColor=#b85450;" parent="WIyWlLk6GJQsqaUBKTNV-1" vertex="1">
          <mxGeometry x="300" y="-1120" width="120" height="40" as="geometry" />
        </mxCell>
        <mxCell id="bwwu2G-xtIND38kB5rFb-4" value="Ingredient (exipient)&lt;br style=&quot;border-color: var(--border-color);&quot;&gt;&lt;i style=&quot;border-color: var(--border-color);&quot;&gt;Novel?, Suitability&lt;/i&gt;" style="rounded=1;whiteSpace=wrap;html=1;fontSize=12;glass=0;strokeWidth=1;shadow=0;fillColor=#f8cecc;strokeColor=#b85450;" parent="WIyWlLk6GJQsqaUBKTNV-1" vertex="1">
          <mxGeometry x="300" y="-1050" width="120" height="40" as="geometry" />
        </mxCell>
        <mxCell id="bwwu2G-xtIND38kB5rFb-5" value="SubstanceDefinition&lt;br&gt;&lt;i&gt;Maize Starch&lt;/i&gt;" style="rounded=1;whiteSpace=wrap;html=1;fontSize=12;glass=0;strokeWidth=1;shadow=0;fillColor=#c1f0da;strokeColor=#9ebda2;" parent="WIyWlLk6GJQsqaUBKTNV-1" vertex="1">
          <mxGeometry x="460" y="-1050" width="150" height="40" as="geometry" />
        </mxCell>
        <mxCell id="bwwu2G-xtIND38kB5rFb-7" value="for" style="endArrow=classic;html=1;rounded=0;exitX=0;exitY=0.5;exitDx=0;exitDy=0;entryX=1;entryY=0.25;entryDx=0;entryDy=0;" parent="WIyWlLk6GJQsqaUBKTNV-1" source="bwwu2G-xtIND38kB5rFb-2" target="PtvGfc8u3fFPzmpzfyYF-7" edge="1">
          <mxGeometry x="-0.0625" y="-10" width="50" height="50" relative="1" as="geometry">
            <mxPoint x="310" y="-1050" as="sourcePoint" />
            <mxPoint x="240" y="-1060" as="targetPoint" />
            <mxPoint as="offset" />
          </mxGeometry>
        </mxCell>
        <mxCell id="bwwu2G-xtIND38kB5rFb-8" value="for" style="endArrow=classic;html=1;rounded=0;exitX=0;exitY=0.5;exitDx=0;exitDy=0;entryX=1;entryY=0.75;entryDx=0;entryDy=0;" parent="WIyWlLk6GJQsqaUBKTNV-1" source="bwwu2G-xtIND38kB5rFb-4" target="PtvGfc8u3fFPzmpzfyYF-7" edge="1">
          <mxGeometry x="-0.0625" y="-10" width="50" height="50" relative="1" as="geometry">
            <mxPoint x="310" y="-1100" as="sourcePoint" />
            <mxPoint x="246" y="-1060" as="targetPoint" />
            <mxPoint as="offset" />
          </mxGeometry>
        </mxCell>
        <mxCell id="bwwu2G-xtIND38kB5rFb-10" value="" style="endArrow=classic;html=1;rounded=0;exitX=1;exitY=0.5;exitDx=0;exitDy=0;entryX=0;entryY=0.5;entryDx=0;entryDy=0;" parent="WIyWlLk6GJQsqaUBKTNV-1" source="bwwu2G-xtIND38kB5rFb-4" target="bwwu2G-xtIND38kB5rFb-5" edge="1">
          <mxGeometry x="-0.3333" y="-2" width="50" height="50" relative="1" as="geometry">
            <mxPoint x="430" y="-1100" as="sourcePoint" />
            <mxPoint x="470" y="-1100" as="targetPoint" />
            <mxPoint as="offset" />
          </mxGeometry>
        </mxCell>
        <mxCell id="nYfhNly5zc0I7Y5ixZCs-0" value="Organization&lt;br&gt;&lt;i&gt;BBB Pharmaceutical, Inc.&lt;/i&gt;" style="rounded=1;whiteSpace=wrap;html=1;fontSize=12;glass=0;strokeWidth=1;shadow=0;fillColor=#cfcfcf;strokeColor=#949494;" vertex="1" parent="WIyWlLk6GJQsqaUBKTNV-1">
          <mxGeometry x="460" y="-990" width="150" height="40" as="geometry" />
        </mxCell>
        <mxCell id="nYfhNly5zc0I7Y5ixZCs-1" value="manufacturer" style="endArrow=classic;html=1;rounded=0;exitX=0.5;exitY=1;exitDx=0;exitDy=0;entryX=0;entryY=0.5;entryDx=0;entryDy=0;" edge="1" parent="WIyWlLk6GJQsqaUBKTNV-1" source="bwwu2G-xtIND38kB5rFb-4" target="nYfhNly5zc0I7Y5ixZCs-0">
          <mxGeometry x="-0.2" width="50" height="50" relative="1" as="geometry">
            <mxPoint x="310" y="-1020" as="sourcePoint" />
            <mxPoint x="246" y="-1040" as="targetPoint" />
            <mxPoint as="offset" />
          </mxGeometry>
        </mxCell>
        <mxCell id="nYfhNly5zc0I7Y5ixZCs-2" value="manufacturer" style="endArrow=classic;html=1;rounded=0;exitX=0.5;exitY=0;exitDx=0;exitDy=0;entryX=0;entryY=0.5;entryDx=0;entryDy=0;" edge="1" parent="WIyWlLk6GJQsqaUBKTNV-1" source="bwwu2G-xtIND38kB5rFb-2" target="nYfhNly5zc0I7Y5ixZCs-3">
          <mxGeometry x="-0.2" width="50" height="50" relative="1" as="geometry">
            <mxPoint x="370" y="-1000" as="sourcePoint" />
            <mxPoint x="360" y="-1160" as="targetPoint" />
            <mxPoint as="offset" />
          </mxGeometry>
        </mxCell>
        <mxCell id="nYfhNly5zc0I7Y5ixZCs-3" value="Organization&lt;br&gt;&lt;i&gt;AAA&amp;nbsp;Pharmaceutical, Inc.&lt;/i&gt;" style="rounded=1;whiteSpace=wrap;html=1;fontSize=12;glass=0;strokeWidth=1;shadow=0;fillColor=#cfcfcf;strokeColor=#949494;" vertex="1" parent="WIyWlLk6GJQsqaUBKTNV-1">
          <mxGeometry x="460" y="-1180" width="150" height="40" as="geometry" />
        </mxCell>
      </root>
    </mxGraphModel>
  </diagram>
</mxfile>
